<svg width="1024" height="1024" viewBox="0 0 1024 1024" fill="none" xmlns="http://www.w3.org/2000/svg">
<rect width="1024" height="1024" fill="url(#paint0_linear_0_520)"/>
<g filter="url(#filter0_di_0_520)">
<circle cx="512" cy="512" r="430" fill="url(#paint1_linear_0_520)"/>
</g>
<g clip-path="url(#clip0_0_520)">
<path d="M851.48 368.828C832.292 324.548 805.724 286.172 771.776 252.224C737.828 218.276 699.452 191.708 655.172 172.52C609.416 153.332 560.708 143 512 143C461.816 143 413.108 153.332 368.828 172.52C324.548 191.708 286.172 218.276 252.224 252.224C218.276 286.172 191.708 326.024 172.52 370.304C153.332 414.584 143 463.292 143 513.476C143 563.66 153.332 610.892 172.52 656.648C191.708 700.928 218.276 739.304 252.224 773.252C286.172 807.2 326.024 833.768 368.828 851.48C414.584 870.668 463.292 881 512 881C560.708 881 609.416 870.668 655.172 851.48C699.452 832.292 737.828 805.724 771.776 771.776C805.724 737.828 832.292 697.976 851.48 655.172C870.668 609.416 881 560.708 881 510.524C881 460.34 870.668 413.108 851.48 368.828ZM389.492 478.052C404.252 419.012 458.864 376.208 522.332 376.208H779.156C795.392 407.204 805.724 442.628 810.152 478.052H389.492ZM810.152 547.424C805.724 582.848 795.392 618.272 779.156 649.268H522.332C458.864 649.268 405.728 604.988 389.492 547.424H810.152ZM299.456 300.932C357.02 243.368 432.296 212.372 512 212.372C591.704 212.372 666.98 243.368 724.544 299.456C726.02 300.932 727.496 302.408 728.972 303.884H522.332C466.244 303.884 416.06 324.548 376.208 364.4C345.212 395.396 324.548 435.248 318.644 476.576H213.848C222.704 410.156 252.224 348.164 299.456 300.932ZM512 811.628C432.296 811.628 357.02 780.632 299.456 724.544C250.748 675.836 221.228 613.844 213.848 547.424H318.644C326.024 588.752 345.212 628.604 376.208 659.6C416.06 699.452 467.72 720.116 522.332 720.116H728.972C727.496 721.592 726.02 723.068 724.544 724.544C666.98 780.632 591.704 811.628 512 811.628Z" fill="black"/>
</g>
<defs>
<filter id="filter0_di_0_520" x="72" y="72" width="880" height="880" filterUnits="userSpaceOnUse" color-interpolation-filters="sRGB">
<feFlood flood-opacity="0" result="BackgroundImageFix"/>
<feColorMatrix in="SourceAlpha" type="matrix" values="0 0 0 0 0 0 0 0 0 0 0 0 0 0 0 0 0 0 127 0" result="hardAlpha"/>
<feOffset/>
<feGaussianBlur stdDeviation="5"/>
<feColorMatrix type="matrix" values="0 0 0 0 0 0 0 0 0 0 0 0 0 0 0 0 0 0 0.1 0"/>
<feBlend mode="normal" in2="BackgroundImageFix" result="effect1_dropShadow_0_520"/>
<feBlend mode="normal" in="SourceGraphic" in2="effect1_dropShadow_0_520" result="shape"/>
<feColorMatrix in="SourceAlpha" type="matrix" values="0 0 0 0 0 0 0 0 0 0 0 0 0 0 0 0 0 0 127 0" result="hardAlpha"/>
<feOffset/>
<feGaussianBlur stdDeviation="5"/>
<feComposite in2="hardAlpha" operator="arithmetic" k2="-1" k3="1"/>
<feColorMatrix type="matrix" values="0 0 0 0 1 0 0 0 0 1 0 0 0 0 1 0 0 0 0.5 0"/>
<feBlend mode="normal" in2="shape" result="effect2_innerShadow_0_520"/>
</filter>
<linearGradient id="paint0_linear_0_520" x1="512" y1="0" x2="512" y2="1024" gradientUnits="userSpaceOnUse">
<stop stop-color="#E8EBEE"/>
<stop offset="1" stop-color="#CED3DB"/>
</linearGradient>
<linearGradient id="paint1_linear_0_520" x1="512" y1="81.026" x2="512" y2="942" gradientUnits="userSpaceOnUse">
<stop stop-color="#F5F5F6"/>
<stop offset="1" stop-color="#EEEEF1"/>
</linearGradient>
<clipPath id="clip0_0_520">
<rect width="738" height="738" fill="white" transform="translate(143 143)"/>
</clipPath>
</defs>
</svg>
